<?xml version="1.0" standalone="no"?>
<!DOCTYPE svg PUBLIC "-//W3C//DTD SVG 20010904//EN"
 "http://www.w3.org/TR/2001/REC-SVG-20010904/DTD/svg10.dtd">
<svg version="1.0" xmlns="http://www.w3.org/2000/svg"
 width="980.000000pt" height="980.000000pt" viewBox="0 0 980.000000 980.000000"
 preserveAspectRatio="xMidYMid meet">
<metadata>
Created by potrace 1.14, written by Peter Selinger 2001-2017
</metadata>
<g transform="translate(0.000000,980.000000) scale(0.100000,-0.100000)"
fill="#000000" stroke="none">
<path d="M4500 9789 c-849 -73 -1620 -343 -2325 -812 -268 -178 -495 -366
-740 -612 -398 -397 -691 -805 -935 -1300 -280 -569 -435 -1132 -490 -1780
-13 -155 -13 -615 0 -770 72 -851 335 -1616 797 -2314 306 -464 701 -885 1148
-1222 622 -470 1380 -795 2145 -919 253 -41 393 -52 707 -57 314 -5 483 2 723
33 1298 164 2491 860 3291 1919 422 558 728 1228 874 1910 80 375 100 585 100
1035 0 450 -20 660 -100 1035 -244 1143 -902 2169 -1852 2888 -56 42 -173 124
-260 181 -690 454 -1453 714 -2298 786 -139 11 -646 11 -785 -1z m840 -1798
c292 -45 581 -132 843 -253 l87 -41 53 50 c436 410 1145 225 1328 -347 74
-229 38 -485 -94 -681 -23 -34 -48 -72 -56 -83 -12 -19 -9 -30 38 -111 106
-183 238 -471 298 -649 111 -332 163 -655 163 -1015 0 -290 -29 -486 -105
-721 -143 -437 -386 -754 -912 -1190 -31 -25 -32 -89 -3 -115 41 -37 81 -25
172 49 378 307 624 593 785 914 l61 123 73 -93 c248 -320 473 -761 585 -1148
l26 -91 -54 -85 c-29 -47 -103 -152 -164 -234 -443 -594 -1029 -1073 -1687
-1378 -663 -306 -1320 -437 -2065 -410 -1236 44 -2423 632 -3228 1598 -143
172 -364 484 -364 514 0 24 72 242 126 379 125 321 296 622 497 875 l59 74 56
-114 c152 -303 386 -584 713 -859 153 -129 226 -179 261 -179 58 0 100 78 66
123 -7 9 -32 29 -55 44 -72 48 -300 252 -408 365 -386 402 -577 794 -626 1282
-17 172 -7 542 21 721 39 258 105 512 185 710 41 102 185 391 245 495 22 37
40 73 40 79 0 6 -22 38 -49 72 -61 76 -102 151 -137 254 -36 108 -45 294 -19
411 82 373 419 644 800 644 97 0 234 -34 337 -82 88 -42 237 -150 257 -186 11
-20 6 -21 177 57 232 105 536 193 794 230 207 30 200 29 485 26 202 -2 290 -8
395 -24z"/>
<path d="M3653 6582 c-136 -48 -217 -167 -218 -317 0 -71 4 -88 33 -147 37
-76 82 -120 162 -157 74 -35 201 -37 272 -4 63 29 134 96 166 158 24 44 27 61
27 150 0 84 -4 107 -23 147 -31 63 -90 121 -154 154 -71 36 -188 43 -265 16z"/>
<path d="M5887 6580 c-222 -86 -284 -381 -116 -549 23 -22 66 -53 97 -68 49
-24 69 -28 142 -28 70 0 95 5 140 26 267 126 254 516 -20 620 -66 25 -178 25
-243 -1z"/>
<path d="M4772 5569 c-176 -27 -293 -113 -337 -247 -24 -72 -17 -225 14 -304
47 -121 163 -235 284 -278 30 -11 51 -24 49 -32 -1 -7 -38 -47 -81 -89 -61
-59 -101 -87 -173 -122 -116 -58 -196 -77 -323 -77 -121 0 -200 18 -317 70
-50 23 -104 40 -124 40 -78 0 -123 -100 -73 -164 27 -35 185 -111 284 -137
104 -28 324 -31 431 -7 151 34 311 116 423 215 l61 55 52 -47 c112 -100 246
-172 395 -212 83 -22 119 -26 238 -26 119 0 155 4 237 26 109 29 248 96 278
135 49 62 4 162 -74 162 -19 0 -75 -17 -123 -39 -123 -53 -201 -71 -320 -71
-198 0 -358 66 -503 208 l-85 83 57 18 c150 48 259 152 318 306 19 48 24 81
24 160 1 94 -1 105 -32 167 -50 101 -127 159 -260 193 -73 20 -239 27 -320 14z"/>
</g>
</svg>
